 http://www.torrentday.com - Your Key To The Scene.

 
http://www.torrentday.com :  Clean RAR Scene Releases!


Enjoy =)

...................................NFO:....................................

.SPRiNTER proudly presents...



Orde.Wingate.1976.Part.01.DVDRip.XviD-SPRiNTER 
http://www.imdb.com/title/tt0074037/
Date: 2010.03


Director: Bill Hays
Genre: Drama
Plot: This superb BBC miniseries chronicles the life and military career of Orde Wingate
(Barry Foster), an unconventional and controversial British World War II commander. Born
in India to a devout Jewish family, Wingate served in Palestine, where he developed new
techniques for guerrilla warfare. But off the battlefield, severe manic depression haunted
the courageous maverick. James Cosmo and Denholm Elliott co-star in this gripping historical
drama. 


Cast:

 Barry Foster ...  Orde Wingate (3 episodes, 1976) 
 James Cosmo ...  Brigadier Calvert (3 episodes, 1976) 
 Arnold Diamond ...  Chaim Weizmann (3 episodes, 1976) 
 Sandor Els ...  David Mitzman (3 episodes, 1976) 
 James Grout ...  Narrator (3 episodes, 1976) 
 Sheila Ruskin ...  Lorna (3 episodes, 1976) 
 Nigel Stock ...  General Wavell (3 episodes, 1976) 
 Dennis Chinnery ...  Reporter (2 episodes, 1976) 
 Clive Graham ...  Staff Officer (2 episodes, 1976) 



Release notes:
Enjoy!

Stats:
Format                           : AVI
Format/Info                      : Audio Video Interleave
File size                        : 701 MiB
Duration                         : 1h 8mn
Overall bit rate                 : 1 439 Kbps
Writing application              : VirtualDubMod 1.5.10.2 (build 2540/release)
Writing library                  : VirtualDubMod build 2540/release

Video
ID                               : 0
Format                           : MPEG-4 Visual
Format profile                   : AdvancedSimple@L5
Format settings, BVOP            : Yes
Format settings, QPel            : No
Format settings, GMC             : No warppoints
Format settings, Matrix          : Default (H.263)
Codec ID                         : XVID
Codec ID/Hint                    : XviD
Duration                         : 1h 8mn
Bit rate                         : 1 334 Kbps
Width                            : 512 pixels
Height                           : 384 pixels
Display aspect ratio             : 4:3
Frame rate                       : 29.970 fps
Resolution                       : 24 bits
Colorimetry                      : 4:2:0
Scan type                        : Progressive
Bits/(Pixel*Frame)               : 0.226
Stream size                      : 650 MiB (93%)
Writing library                  : XviD 1.2.1 (UTC 2008-12-04)

Audio
ID                               : 1
Format                           : MPEG Audio
Format version                   : Version 1
Format profile                   : Layer 3
Codec ID                         : 55
Codec ID/Hint                    : MP3
Duration                         : 1h 8mn
Bit rate mode                    : Variable
Bit rate                         : 91.8 Kbps
Minimum bit rate                 : 32.0 Kbps
Channel(s)                       : 1 channel
Sampling rate                    : 48.0 KHz
Resolution                       : 16 bits
Stream size                      : 44.7 MiB (6%)
Alignment                        : Aligned on interleaves
Interleave, duration             : 24 ms (0.72 video frame)
Interleave, preload duration     : 397 ms
Writing library                  : LAME3.95 
Encoding settings                : -m m -V 4 -q 3 -lowpass 18 --vbr-old -b 32